<svg xmlns="http://www.w3.org/2000/svg" xmlns:v="https://svgstorm.com"
viewBox = "0 0 1000 250"
width="1000"
height="250">
<g fill="None" fill-opacity="0.0" stroke="#000000" stroke-opacity="0.00" stroke-width="0.3"><path d="
M 0.00 250.00 
L 1000.00 250.00
L 1000.00 0.00
L 0.00 0.00
L 0.00 250.00
M 200.00 65.00 
C 200.15 64.39 201.27 62.42 202.00 62.00
C 202.42 64.62 200.70 68.83 204.00 70.00
C 204.00 69.00 204.00 68.00 204.00 67.00
C 204.00 63.97 203.44 60.63 205.00 58.00
C 211.28 64.20 217.75 70.91 223.00 78.00
C 224.87 80.03 227.21 81.90 229.00 84.00
C 230.35 85.58 231.69 87.47 233.00 89.00
C 235.33 91.33 237.88 93.51 240.00 96.00
C 242.44 98.85 247.40 104.86 249.75 107.25 C 252.11 109.63 261.27 116.91 258.00 119.00
C 256.30 120.08 249.09 119.20 247.00 119.00
C 235.94 119.66 239.35 139.42 240.00 149.00
C 241.70 174.03 264.94 190.85 287.00 198.00
C 284.85 201.29 281.08 199.21 278.00 199.00
C 275.72 198.77 272.65 198.20 271.00 198.00
C 242.77 194.59 218.72 179.67 208.00 153.00
C 201.84 137.67 204.00 118.28 204.00 101.00
C 201.10 102.32 201.93 106.29 202.00 109.00
C 202.03 110.00 202.00 111.00 202.00 112.00
C 202.01 114.52 200.02 117.54 200.00 119.00
C 200.56 124.30 200.66 130.48 200.00 138.00
C 196.48 178.01 153.43 203.31 116.00 198.00
C 151.49 191.03 174.83 153.00 163.00 118.00
C 157.33 118.00 151.67 118.00 146.00 118.00
C 161.04 97.82 180.03 79.48 197.00 61.00
C 198.27 59.48 198.73 56.91 201.00 57.00
C 201.03 59.74 199.37 62.08 200.00 65.00
M 651.00 75.00 
C 665.96 79.54 657.11 103.88 641.98 98.02 C 626.84 92.17 634.82 70.09 651.00 75.00
M 570.00 109.00 
C 570.00 111.20 570.40 113.84 570.00 116.00
C 579.50 116.00 590.51 118.01 601.00 117.00
C 602.43 106.89 598.21 96.23 601.00 87.00
C 602.19 85.81 604.96 86.90 607.00 87.00
C 609.71 86.86 613.26 86.67 616.00 87.00
C 618.33 87.05 620.67 86.96 623.00 87.00
C 622.31 95.67 624.91 106.55 624.00 115.00 C 623.09 123.45 623.64 135.36 623.00 143.00 C 622.36 150.64 628.37 165.73 620.97 168.97 C 613.57 172.20 598.95 170.15 600.93 161.93 C 602.91 153.70 597.83 146.20 600.00 137.00
C 596.62 138.65 589.16 134.37 585.26 136.60 C 581.35 138.82 573.71 134.65 569.00 136.00
C 567.09 139.21 570.65 145.20 569.40 149.74 C 568.16 154.28 571.51 163.98 569.00 169.00
C 558.24 169.54 545.61 171.75 547.00 159.00 C 548.39 146.25 546.66 138.16 547.00 126.00 C 547.34 113.84 547.59 106.43 547.00 94.00 C 546.41 81.57 559.63 88.37 569.00 87.00
C 568.79 94.68 570.65 101.01 570.00 109.00
M 449.00 169.00 
C 442.26 171.81 432.14 166.10 426.00 171.00
C 426.00 166.33 426.00 161.67 426.00 157.00
C 427.91 158.90 430.33 159.31 433.00 159.00
C 434.24 156.41 436.09 153.58 436.00 150.00
C 445.23 147.35 449.66 136.19 443.25 128.75 C 436.83 121.32 432.90 113.07 428.00 105.00
C 435.92 104.76 444.78 105.34 452.00 105.00
C 451.86 107.25 454.16 108.71 454.00 111.00
C 455.63 113.56 459.30 114.53 460.00 118.00
C 461.94 117.09 463.68 115.67 466.00 116.00
C 468.09 110.67 470.00 105.99 475.00 103.00
C 482.25 107.01 493.32 104.30 502.00 106.00
C 500.55 100.73 504.41 96.05 503.00 90.00
C 511.99 89.81 528.48 84.50 524.00 100.00
C 528.01 98.86 526.85 103.64 527.00 106.00
C 530.67 106.00 534.33 106.00 538.00 106.00
C 538.57 114.50 539.71 125.66 528.00 121.00
C 521.76 128.47 522.53 144.49 527.00 153.00
C 530.70 153.67 533.60 151.56 537.00 151.00
C 540.69 159.10 542.78 167.20 532.98 168.98 C 523.17 170.75 517.83 170.98 509.75 165.25 C 501.67 159.51 502.63 152.66 503.00 144.00 C 503.37 135.34 506.46 119.23 494.00 122.00
C 493.35 117.17 495.31 111.01 493.00 107.00
C 489.43 118.17 475.08 126.51 477.93 138.07 C 480.77 149.63 491.45 157.33 496.00 169.00
C 489.46 167.35 476.80 171.98 471.75 167.25 C 466.71 162.51 466.45 155.21 461.00 151.00
C 456.63 156.54 452.78 163.37 449.00 169.00
M 311.00 105.00 
C 310.00 108.97 312.16 107.82 314.00 109.00
C 324.70 101.71 345.77 100.66 352.77 116.23 C 359.77 131.80 354.49 152.36 355.00 169.00
C 347.97 168.93 339.47 170.73 333.00 167.00
C 337.43 160.28 333.35 152.14 335.00 144.00 C 336.65 135.86 334.96 126.23 327.26 123.74 C 319.55 121.26 312.57 124.36 313.00 134.00 C 313.43 143.65 312.11 151.65 313.00 162.00 C 313.89 172.35 299.87 168.54 292.00 169.00
C 291.07 157.44 291.92 149.41 292.00 138.00 C 292.08 126.59 290.14 117.15 291.00 106.00
C 297.64 103.51 303.94 105.25 311.00 105.00
M 419.00 112.00 
C 424.81 114.75 424.28 113.46 426.00 120.00
C 427.34 125.08 432.09 136.03 428.00 142.00
C 427.38 142.91 427.15 142.86 426.00 143.00
C 422.77 145.65 418.13 143.80 413.00 145.00
C 413.73 146.74 421.39 149.15 417.00 150.00
C 418.10 151.06 418.93 153.02 420.00 154.00
C 421.61 155.19 423.18 156.23 425.00 157.00
C 407.13 179.10 365.38 172.11 360.78 142.78 C 356.19 113.44 395.30 90.21 419.00 112.00
M 689.00 155.00 
C 689.00 158.63 689.04 162.05 688.00 165.00
C 687.58 166.19 688.32 167.78 688.00 169.00
C 681.47 167.26 667.31 173.41 667.00 164.00 C 666.70 154.59 667.49 147.49 667.00 138.00 C 666.51 128.51 668.01 122.13 667.00 112.00 C 665.99 101.87 679.33 105.33 687.00 105.00
C 687.00 107.00 687.00 109.00 687.00 111.00
C 687.37 110.60 690.24 109.48 691.00 109.00
C 694.70 106.66 707.36 101.24 708.96 106.04 C 710.57 110.83 711.21 123.94 705.99 123.99 C 700.77 124.04 692.35 124.02 690.08 131.08 C 687.81 138.14 689.00 147.40 689.00 155.00
M 779.00 143.00 
C 763.56 142.42 749.26 145.66 734.00 143.00
C 735.22 151.02 749.04 157.91 756.08 151.08 C 763.12 144.24 772.54 150.90 774.00 160.00
C 758.28 173.93 729.23 174.80 716.70 155.30 C 704.17 135.81 715.04 109.74 738.01 105.01 C 760.98 100.28 785.38 117.82 779.00 143.00
M 657.00 169.00 
C 647.87 169.01 634.21 172.05 635.00 161.00 C 635.79 149.95 634.55 143.26 635.00 133.00 C 635.45 122.74 634.51 115.57 635.00 105.00
C 642.26 106.36 657.35 100.73 657.00 111.00 C 656.65 121.27 657.18 130.02 657.00 140.00 C 656.82 149.98 657.14 159.10 657.00 169.00 Z"/>
</g>
<g fill="None" fill-opacity="0.0" stroke="#26557E" stroke-opacity="0.37" stroke-width="0.3"><path d="
M 197.00 61.00 
C 200.28 60.19 198.95 71.86 199.00 77.00 C 199.05 82.14 199.20 92.05 199.00 98.00 C 198.80 103.95 199.62 111.74 199.00 118.00 C 198.38 124.26 199.95 132.49 200.00 138.00
C 200.66 130.48 200.56 124.30 200.00 119.00
C 199.74 116.49 201.23 112.73 201.00 111.00
C 199.91 109.34 200.12 107.93 200.00 106.00
C 199.87 104.02 200.00 101.99 200.00 100.00
C 200.00 91.33 200.00 82.67 200.00 74.00
C 200.00 71.02 199.84 67.98 200.00 65.00
C 199.37 62.08 201.03 59.74 201.00 57.00
C 198.73 56.91 198.27 59.48 197.00 61.00 Z"/>
</g>
<g fill="None" fill-opacity="0.0" stroke="#2491C5" stroke-opacity="0.91" stroke-width="0.3"><path d="
M 204.00 67.00 
C 204.21 69.15 205.23 72.14 205.00 75.00
C 204.76 77.94 204.07 81.34 204.00 85.00
C 204.22 86.05 207.72 87.77 206.00 90.00
C 212.71 87.50 220.48 83.43 227.00 84.00
C 225.77 82.47 224.39 79.76 223.00 78.00
C 217.75 70.91 211.28 64.20 205.00 58.00
C 203.44 60.63 204.00 63.97 204.00 67.00 Z"/>
</g>
<g fill="None" fill-opacity="0.0" stroke="#104176" stroke-opacity="0.95" stroke-width="0.3"><path d="
M 197.00 61.00 
C 180.03 79.48 161.04 97.82 146.00 118.00
C 151.67 118.00 157.33 118.00 163.00 118.00
C 174.83 153.00 151.49 191.03 116.00 198.00
C 153.43 203.31 196.48 178.01 200.00 138.00
C 199.95 132.49 198.38 124.26 199.00 118.00 C 199.62 111.74 198.80 103.95 199.00 98.00 C 199.20 92.05 199.05 82.14 199.00 77.00 C 198.95 71.86 200.28 60.19 197.00 61.00 Z"/>
</g>
<g fill="None" fill-opacity="0.0" stroke="#316092" stroke-opacity="0.02" stroke-width="0.3"><path d="
M 200.00 65.00 
C 199.84 67.98 200.00 71.02 200.00 74.00
C 200.66 73.76 203.68 72.52 204.00 72.00
C 204.00 71.50 204.00 70.50 204.00 70.00
C 200.70 68.83 202.42 64.62 202.00 62.00
C 201.27 62.42 200.15 64.39 200.00 65.00 Z"/>
</g>
<g fill="None" fill-opacity="0.0" stroke="#3185B4" stroke-opacity="0.09" stroke-width="0.3"><path d="
M 204.00 70.00 
C 204.00 70.50 204.00 71.50 204.00 72.00
C 204.01 73.45 204.85 74.19 205.00 75.00
C 205.23 72.14 204.21 69.15 204.00 67.00
C 204.00 68.00 204.00 69.00 204.00 70.00 Z"/>
</g>
<g fill="None" fill-opacity="0.0" stroke="#000000" stroke-opacity="0.00" stroke-width="0.3"><path d="
M 200.00 74.00 
C 200.00 82.67 200.00 91.33 200.00 100.00
C 201.06 100.45 203.02 99.41 204.00 100.00
C 203.42 95.20 203.90 89.84 204.00 85.00
C 204.07 81.34 204.76 77.94 205.00 75.00
C 204.85 74.19 204.01 73.45 204.00 72.00
C 203.68 72.52 200.66 73.76 200.00 74.00 Z"/>
</g>
<g fill="None" fill-opacity="0.0" stroke="#2BBBD8" stroke-opacity="0.88" stroke-width="0.3"><path d="
M 651.00 75.00 
C 634.82 70.09 626.84 92.17 641.98 98.02 C 657.11 103.88 665.96 79.54 651.00 75.00 Z"/>
</g>
<g fill="None" fill-opacity="0.0" stroke="#5191AC" stroke-opacity="0.18" stroke-width="0.3"><path d="
M 227.00 84.00 
C 227.48 83.90 228.69 83.76 229.00 84.00
C 227.21 81.90 224.87 80.03 223.00 78.00
C 224.39 79.76 225.77 82.47 227.00 84.00 Z"/>
</g>
<g fill="None" fill-opacity="0.0" stroke="#1EA7D3" stroke-opacity="0.96" stroke-width="0.3"><path d="
M 204.00 85.00 
C 203.90 89.84 203.42 95.20 204.00 100.00
C 205.37 102.20 204.98 105.38 206.00 108.00
C 214.38 102.09 228.15 104.67 232.00 95.00
C 233.86 96.48 236.79 95.76 238.00 95.00
C 236.20 93.32 234.56 90.83 233.00 89.00
C 231.69 87.47 230.35 85.58 229.00 84.00
C 228.69 83.76 227.48 83.90 227.00 84.00
C 220.48 83.43 212.71 87.50 206.00 90.00
C 207.72 87.77 204.22 86.05 204.00 85.00 Z"/>
</g>
<g fill="None" fill-opacity="0.0" stroke="#1F86BE" stroke-opacity="0.93" stroke-width="0.3"><path d="
M 569.00 136.00 
C 569.71 134.81 570.69 135.11 572.00 135.00
C 566.00 132.84 570.69 124.67 570.00 120.00
C 571.81 120.14 574.08 119.56 575.00 118.00
C 573.60 117.96 569.44 118.82 569.00 117.00
C 568.13 114.28 569.81 110.94 570.00 109.00
C 570.65 101.01 568.79 94.68 569.00 87.00
C 559.63 88.37 546.41 81.57 547.00 94.00 C 547.59 106.43 547.34 113.84 547.00 126.00 C 546.66 138.16 548.39 146.25 547.00 159.00 C 545.61 171.75 558.24 169.54 569.00 169.00
C 571.51 163.98 568.16 154.28 569.40 149.74 C 570.65 145.20 567.09 139.21 569.00 136.00 Z"/>
</g>
<g fill="None" fill-opacity="0.0" stroke="#23B1D7" stroke-opacity="0.93" stroke-width="0.3"><path d="
M 601.00 87.00 
C 602.12 90.33 602.90 98.18 602.00 102.00 C 601.10 105.82 604.39 115.60 601.00 118.00
C 601.92 118.02 602.83 116.36 604.00 117.00
C 600.62 121.52 605.19 123.64 608.00 126.00
C 605.63 127.45 602.68 125.18 600.00 125.00
C 600.28 127.88 600.47 130.17 604.00 131.00
C 604.69 134.08 600.91 133.31 600.00 135.00
C 600.63 133.93 599.97 137.28 600.00 137.00
C 597.83 146.20 602.91 153.70 600.93 161.93 C 598.95 170.15 613.57 172.20 620.97 168.97 C 628.37 165.73 622.36 150.64 623.00 143.00 C 623.64 135.36 623.09 123.45 624.00 115.00 C 624.91 106.55 622.31 95.67 623.00 87.00
C 620.67 86.96 618.33 87.05 616.00 87.00
C 613.01 86.94 609.99 87.14 607.00 87.00
C 604.96 86.90 602.19 85.81 601.00 87.00 Z"/>
</g>
<g fill="None" fill-opacity="0.0" stroke="#00FFFF" stroke-opacity="0.00" stroke-width="0.3"><path d="
M 607.00 87.00 
C 609.99 87.14 613.01 86.94 616.00 87.00
C 613.26 86.67 609.71 86.86 607.00 87.00 Z"/>
</g>
<g fill="None" fill-opacity="0.0" stroke="#3EA5C3" stroke-opacity="0.43" stroke-width="0.3"><path d="
M 570.00 116.00 
C 569.93 116.35 568.98 116.92 569.00 117.00
C 569.44 118.82 573.60 117.96 575.00 118.00
C 583.66 118.24 592.34 117.81 601.00 118.00
C 604.39 115.60 601.10 105.82 602.00 102.00 C 602.90 98.18 602.12 90.33 601.00 87.00
C 598.21 96.23 602.43 106.89 601.00 117.00
C 590.51 118.01 579.50 116.00 570.00 116.00 Z"/>
</g>
<g fill="None" fill-opacity="0.0" stroke="#449FBA" stroke-opacity="0.11" stroke-width="0.3"><path d="
M 238.00 95.00 
C 238.49 95.46 239.57 95.60 240.00 96.00
C 237.88 93.51 235.33 91.33 233.00 89.00
C 234.56 90.83 236.20 93.32 238.00 95.00 Z"/>
</g>
<g fill="None" fill-opacity="0.0" stroke="#393939" stroke-opacity="0.91" stroke-width="0.3"><path d="
M 466.00 116.00 
C 465.03 118.47 463.65 120.78 462.00 123.00
C 457.63 120.20 456.92 114.83 454.00 111.00
C 454.16 108.71 451.86 107.25 452.00 105.00
C 444.78 105.34 435.92 104.76 428.00 105.00
C 432.90 113.07 436.83 121.32 443.25 128.75 C 449.66 136.19 445.23 147.35 436.00 150.00
C 436.09 153.58 434.24 156.41 433.00 159.00
C 431.34 162.47 428.81 164.69 428.00 168.00
C 434.83 168.66 442.99 166.68 449.00 169.00
C 452.78 163.37 456.63 156.54 461.00 151.00
C 466.45 155.21 466.71 162.51 471.75 167.25 C 476.80 171.98 489.46 167.35 496.00 169.00
C 491.45 157.33 480.77 149.63 477.93 138.07 C 475.08 126.51 489.43 118.17 493.00 107.00
C 495.31 111.01 493.35 117.17 494.00 122.00
C 506.46 119.23 503.37 135.34 503.00 144.00 C 502.63 152.66 501.67 159.51 509.75 165.25 C 517.83 170.98 523.17 170.75 532.98 168.98 C 542.78 167.20 540.69 159.10 537.00 151.00
C 533.60 151.56 530.70 153.67 527.00 153.00
C 522.53 144.49 521.76 128.47 528.00 121.00
C 539.71 125.66 538.57 114.50 538.00 106.00
C 534.33 106.00 530.67 106.00 527.00 106.00
C 526.85 103.64 528.01 98.86 524.00 100.00
C 528.48 84.50 511.99 89.81 503.00 90.00
C 504.41 96.05 500.55 100.73 502.00 106.00
C 493.32 104.30 482.25 107.01 475.00 103.00
C 470.00 105.99 468.09 110.67 466.00 116.00
M 524.00 100.00 
C 526.01 107.71 521.10 105.61 524.00 100.00 Z"/>
</g>
<g fill="None" fill-opacity="0.0" stroke="#1FBCDE" stroke-opacity="0.96" stroke-width="0.3"><path d="
M 204.00 100.00 
C 204.22 100.13 204.00 101.00 204.00 101.00
C 204.00 118.28 201.84 137.67 208.00 153.00
C 208.53 149.43 214.08 151.06 211.00 145.00
C 214.12 144.82 217.61 148.98 216.00 152.00
C 221.41 153.74 221.80 148.58 223.00 145.00
C 226.67 154.08 231.67 137.49 239.00 142.00
C 238.93 138.60 238.37 133.22 239.00 130.00 C 239.63 126.78 237.24 120.52 239.00 118.00
C 241.22 114.83 255.83 116.70 258.00 119.00
C 261.27 116.91 252.11 109.63 249.75 107.25 C 247.40 104.86 242.44 98.85 240.00 96.00
C 239.57 95.60 238.49 95.46 238.00 95.00
C 236.79 95.76 233.86 96.48 232.00 95.00
C 228.15 104.67 214.38 102.09 206.00 108.00
C 204.98 105.38 205.37 102.20 204.00 100.00 Z"/>
</g>
<g fill="None" fill-opacity="0.0" stroke="#337488" stroke-opacity="0.03" stroke-width="0.3"><path d="
M 200.00 106.00 
C 200.13 106.57 201.90 108.49 202.00 109.00
C 201.93 106.29 201.10 102.32 204.00 101.00
C 204.00 101.00 204.22 100.13 204.00 100.00
C 203.02 99.41 201.06 100.45 200.00 100.00
C 200.00 101.99 199.87 104.02 200.00 106.00 Z"/>
</g>
<g fill="None" fill-opacity="0.0" stroke="#383839" stroke-opacity="0.16" stroke-width="0.3"><path d="
M 524.00 100.00 
C 521.10 105.61 526.01 107.71 524.00 100.00 Z"/>
</g>
<g fill="None" fill-opacity="0.0" stroke="#383838" stroke-opacity="0.92" stroke-width="0.3"><path d="
M 311.00 105.00 
C 303.94 105.25 297.64 103.51 291.00 106.00
C 290.14 117.15 292.08 126.59 292.00 138.00 C 291.92 149.41 291.07 157.44 292.00 169.00
C 299.87 168.54 313.89 172.35 313.00 162.00 C 312.11 151.65 313.43 143.65 313.00 134.00 C 312.57 124.36 319.55 121.26 327.26 123.74 C 334.96 126.23 336.65 135.86 335.00 144.00 C 333.35 152.14 337.43 160.28 333.00 167.00
C 339.47 170.73 347.97 168.93 355.00 169.00
C 354.49 152.36 359.77 131.80 352.77 116.23 C 345.77 100.66 324.70 101.71 314.00 109.00
C 312.16 107.82 310.00 108.97 311.00 105.00 Z"/>
</g>
<g fill="None" fill-opacity="0.0" stroke="#393939" stroke-opacity="0.93" stroke-width="0.3"><path d="
M 420.00 154.00 
C 417.78 152.35 415.38 150.39 414.00 148.00
C 412.29 146.94 410.93 151.17 410.00 149.00
C 407.94 150.23 406.54 148.44 409.00 151.00
C 406.09 150.76 403.82 152.76 401.00 153.00
C 395.61 154.40 390.92 154.04 387.00 150.00
C 385.08 148.03 384.35 145.30 383.00 143.00
C 386.57 141.54 392.74 141.56 397.00 142.00 C 401.26 142.44 408.12 140.82 412.00 142.00 C 415.88 143.18 425.24 139.49 428.00 142.00
C 432.09 136.03 427.34 125.08 426.00 120.00
C 424.52 117.77 420.91 113.91 419.00 112.00
C 395.30 90.21 356.19 113.44 360.78 142.78 C 365.38 172.11 407.13 179.10 425.00 157.00
C 423.18 156.23 421.61 155.19 420.00 154.00
M 406.00 125.00 
C 407.02 126.62 407.55 128.89 408.00 131.00
C 405.67 131.00 403.33 131.00 401.00 131.00
C 395.34 131.11 389.66 130.92 384.00 131.00
C 383.68 126.76 389.53 120.17 394.07 120.07 C 398.62 119.98 402.64 121.99 406.00 125.00 Z"/>
</g>
<g fill="None" fill-opacity="0.0" stroke="#2ACDE2" stroke-opacity="0.91" stroke-width="0.3"><path d="
M 691.00 109.00 
C 689.77 110.30 689.23 114.73 686.00 114.00
C 686.11 113.00 685.53 111.27 687.00 111.00
C 687.00 109.00 687.00 107.00 687.00 105.00
C 679.33 105.33 665.99 101.87 667.00 112.00 C 668.01 122.13 666.51 128.51 667.00 138.00 C 667.49 147.49 666.70 154.59 667.00 164.00 C 667.31 173.41 681.47 167.26 688.00 169.00
C 688.32 167.78 687.58 166.19 688.00 165.00
C 688.58 162.20 688.78 157.27 689.00 155.00
C 689.00 147.40 687.81 138.14 690.08 131.08 C 692.35 124.02 700.77 124.04 705.99 123.99 C 711.21 123.94 710.57 110.83 708.96 106.04 C 707.36 101.24 694.70 106.66 691.00 109.00 Z"/>
</g>
<g fill="None" fill-opacity="0.0" stroke="#2CE2EC" stroke-opacity="0.91" stroke-width="0.3"><path d="
M 779.00 143.00 
C 785.38 117.82 760.98 100.28 738.01 105.01 C 715.04 109.74 704.17 135.81 716.70 155.30 C 729.23 174.80 758.28 173.93 774.00 160.00
C 772.54 150.90 763.12 144.24 756.08 151.08 C 749.04 157.91 735.22 151.02 734.00 143.00
C 749.26 145.66 763.56 142.42 779.00 143.00
M 758.00 130.00 
C 750.25 129.96 742.41 130.42 735.00 129.00
C 735.96 116.93 756.54 118.64 758.00 130.00 Z"/>
</g>
<g fill="None" fill-opacity="0.0" stroke="#29BCDB" stroke-opacity="0.91" stroke-width="0.3"><path d="
M 657.00 169.00 
C 657.14 159.10 656.82 149.98 657.00 140.00 C 657.18 130.02 656.65 121.27 657.00 111.00 C 657.35 100.73 642.26 106.36 635.00 105.00
C 634.51 115.57 635.45 122.74 635.00 133.00 C 634.55 143.26 635.79 149.95 635.00 161.00 C 634.21 172.05 647.87 169.01 657.00 169.00 Z"/>
</g>
<g fill="None" fill-opacity="0.0" stroke="#3C5AA5" stroke-opacity="0.02" stroke-width="0.3"><path d="
M 201.00 111.00 
C 201.20 111.31 201.94 111.76 202.00 112.00
C 202.00 111.00 202.03 110.00 202.00 109.00
C 201.90 108.49 200.13 106.57 200.00 106.00
C 200.12 107.93 199.91 109.34 201.00 111.00 Z"/>
</g>
<g fill="None" fill-opacity="0.0" stroke="#338CAB" stroke-opacity="0.04" stroke-width="0.3"><path d="
M 569.00 117.00 
C 568.98 116.92 569.93 116.35 570.00 116.00
C 570.40 113.84 570.00 111.20 570.00 109.00
C 569.81 110.94 568.13 114.28 569.00 117.00 Z"/>
</g>
<g fill="None" fill-opacity="0.0" stroke="#39D9EA" stroke-opacity="0.45" stroke-width="0.3"><path d="
M 687.00 111.00 
C 685.53 111.27 686.11 113.00 686.00 114.00
C 689.23 114.73 689.77 110.30 691.00 109.00
C 690.24 109.48 687.37 110.60 687.00 111.00 Z"/>
</g>
<g fill="None" fill-opacity="0.0" stroke="#0000FF" stroke-opacity="0.00" stroke-width="0.3"><path d="
M 200.00 119.00 
C 200.02 117.54 202.01 114.52 202.00 112.00
C 201.94 111.76 201.20 111.31 201.00 111.00
C 201.23 112.73 199.74 116.49 200.00 119.00 Z"/>
</g>
<g fill="None" fill-opacity="0.0" stroke="#3A3A3B" stroke-opacity="0.15" stroke-width="0.3"><path d="
M 466.00 116.00 
C 463.68 115.67 461.94 117.09 460.00 118.00
C 459.30 114.53 455.63 113.56 454.00 111.00
C 456.92 114.83 457.63 120.20 462.00 123.00
C 463.65 120.78 465.03 118.47 466.00 116.00 Z"/>
</g>
<g fill="None" fill-opacity="0.0" stroke="#373737" stroke-opacity="0.13" stroke-width="0.3"><path d="
M 426.00 120.00 
C 424.28 113.46 424.81 114.75 419.00 112.00
C 420.91 113.91 424.52 117.77 426.00 120.00 Z"/>
</g>
<g fill="None" fill-opacity="0.0" stroke="#4EB6CF" stroke-opacity="0.54" stroke-width="0.3"><path d="
M 239.00 118.00 
C 241.66 117.05 245.11 118.82 247.00 119.00
C 249.09 119.20 256.30 120.08 258.00 119.00
C 255.83 116.70 241.22 114.83 239.00 118.00 Z"/>
</g>
<g fill="None" fill-opacity="0.0" stroke="#1A9FCF" stroke-opacity="1.00" stroke-width="0.3"><path d="
M 601.00 118.00 
C 592.34 117.81 583.66 118.24 575.00 118.00
C 574.08 119.56 571.81 120.14 570.00 120.00
C 570.69 124.67 566.00 132.84 572.00 135.00
C 576.12 134.65 581.97 134.47 586.00 135.00 C 590.03 135.53 596.49 133.25 600.00 135.00
C 600.91 133.31 604.69 134.08 604.00 131.00
C 600.47 130.17 600.28 127.88 600.00 125.00
C 602.68 125.18 605.63 127.45 608.00 126.00
C 605.19 123.64 600.62 121.52 604.00 117.00
C 602.83 116.36 601.92 118.02 601.00 118.00 Z"/>
</g>
<g fill="None" fill-opacity="0.0" stroke="#40BED2" stroke-opacity="0.11" stroke-width="0.3"><path d="
M 239.00 142.00 
C 239.05 144.59 239.65 147.07 240.00 149.00
C 239.35 139.42 235.94 119.66 247.00 119.00
C 245.11 118.82 241.66 117.05 239.00 118.00
C 237.24 120.52 239.63 126.78 239.00 130.00 C 238.37 133.22 238.93 138.60 239.00 142.00 Z"/>
</g>
<g fill="None" fill-opacity="0.0" stroke="#000000" stroke-opacity="0.00" stroke-width="0.3"><path d="
M 401.00 131.00 
C 401.00 129.33 401.00 127.67 401.00 126.00
C 402.76 126.05 404.07 124.47 406.00 125.00
C 402.64 121.99 398.62 119.98 394.07 120.07 C 389.53 120.17 383.68 126.76 384.00 131.00
C 389.66 130.92 395.34 131.11 401.00 131.00 Z"/>
</g>
<g fill="None" fill-opacity="0.0" stroke="#000000" stroke-opacity="0.00" stroke-width="0.3"><path d="
M 758.00 130.00 
C 756.54 118.64 735.96 116.93 735.00 129.00
C 742.41 130.42 750.25 129.96 758.00 130.00 Z"/>
</g>
<g fill="None" fill-opacity="0.0" stroke="#343434" stroke-opacity="0.08" stroke-width="0.3"><path d="
M 401.00 131.00 
C 403.33 131.00 405.67 131.00 408.00 131.00
C 407.55 128.89 407.02 126.62 406.00 125.00
C 404.07 124.47 402.76 126.05 401.00 126.00
C 401.00 127.67 401.00 129.33 401.00 131.00 Z"/>
</g>
<g fill="None" fill-opacity="0.0" stroke="#3D9EC5" stroke-opacity="0.42" stroke-width="0.3"><path d="
M 569.00 136.00 
C 573.71 134.65 581.35 138.82 585.26 136.60 C 589.16 134.37 596.62 138.65 600.00 137.00
C 599.97 137.28 600.63 133.93 600.00 135.00
C 596.49 133.25 590.03 135.53 586.00 135.00 C 581.97 134.47 576.12 134.65 572.00 135.00
C 570.69 135.11 569.71 134.81 569.00 136.00 Z"/>
</g>
<g fill="None" fill-opacity="0.0" stroke="#2AD9EB" stroke-opacity="0.92" stroke-width="0.3"><path d="
M 208.00 153.00 
C 218.72 179.67 242.77 194.59 271.00 198.00
C 274.51 197.90 274.95 198.12 278.00 199.00
C 281.08 199.21 284.85 201.29 287.00 198.00
C 264.94 190.85 241.70 174.03 240.00 149.00
C 239.65 147.07 239.05 144.59 239.00 142.00
C 231.67 137.49 226.67 154.08 223.00 145.00
C 221.80 148.58 221.41 153.74 216.00 152.00
C 217.61 148.98 214.12 144.82 211.00 145.00
C 214.08 151.06 208.53 149.43 208.00 153.00 Z"/>
</g>
<g fill="None" fill-opacity="0.0" stroke="#383838" stroke-opacity="0.42" stroke-width="0.3"><path d="
M 383.00 143.00 
C 389.00 143.00 395.00 143.00 401.00 143.00
C 409.12 143.00 417.95 143.99 426.00 143.00
C 427.15 142.86 427.38 142.91 428.00 142.00
C 425.24 139.49 415.88 143.18 412.00 142.00 C 408.12 140.82 401.26 142.44 397.00 142.00 C 392.74 141.56 386.57 141.54 383.00 143.00 Z"/>
</g>
<g fill="None" fill-opacity="0.0" stroke="#000000" stroke-opacity="0.00" stroke-width="0.3"><path d="
M 387.00 150.00 
C 388.41 150.67 392.46 150.94 394.22 150.78 C 395.99 150.62 400.28 152.95 401.00 153.00
C 403.82 152.76 406.09 150.76 409.00 151.00
C 406.54 148.44 407.94 150.23 410.00 149.00
C 410.30 148.82 411.77 147.05 412.00 147.00
C 409.51 144.96 405.59 143.44 401.00 143.00
C 395.00 143.00 389.00 143.00 383.00 143.00
C 384.35 145.30 385.08 148.03 387.00 150.00 Z"/>
</g>
<g fill="None" fill-opacity="0.0" stroke="#3E3C3B" stroke-opacity="0.03" stroke-width="0.3"><path d="
M 412.00 147.00 
C 413.20 147.98 415.66 148.70 417.00 150.00
C 421.39 149.15 413.73 146.74 413.00 145.00
C 418.13 143.80 422.77 145.65 426.00 143.00
C 417.95 143.99 409.12 143.00 401.00 143.00
C 405.59 143.44 409.51 144.96 412.00 147.00 Z"/>
</g>
<g fill="None" fill-opacity="0.0" stroke="#3D3B3C" stroke-opacity="0.29" stroke-width="0.3"><path d="
M 410.00 149.00 
C 410.93 151.17 412.29 146.94 414.00 148.00
C 415.38 150.39 417.78 152.35 420.00 154.00
C 418.93 153.02 418.10 151.06 417.00 150.00
C 415.66 148.70 413.20 147.98 412.00 147.00
C 411.77 147.05 410.30 148.82 410.00 149.00 Z"/>
</g>
<g fill="None" fill-opacity="0.0" stroke="#383637" stroke-opacity="0.18" stroke-width="0.3"><path d="
M 401.00 153.00 
C 400.28 152.95 395.99 150.62 394.22 150.78 C 392.46 150.94 388.41 150.67 387.00 150.00
C 390.92 154.04 395.61 154.40 401.00 153.00 Z"/>
</g>
<g fill="None" fill-opacity="0.0" stroke="#49C2C2" stroke-opacity="0.02" stroke-width="0.3"><path d="
M 688.00 165.00 
C 689.04 162.05 689.00 158.63 689.00 155.00
C 688.78 157.27 688.58 162.20 688.00 165.00 Z"/>
</g>
<g fill="None" fill-opacity="0.0" stroke="#3A3939" stroke-opacity="0.15" stroke-width="0.3"><path d="
M 449.00 169.00 
C 442.99 166.68 434.83 168.66 428.00 168.00
C 428.81 164.69 431.34 162.47 433.00 159.00
C 430.33 159.31 427.91 158.90 426.00 157.00
C 426.00 161.67 426.00 166.33 426.00 171.00
C 432.14 166.10 442.26 171.81 449.00 169.00 Z"/>
</g>
<g fill="None" fill-opacity="0.0" stroke="#67EAEC" stroke-opacity="0.27" stroke-width="0.3"><path d="
M 271.00 198.00 
C 272.65 198.20 275.72 198.77 278.00 199.00
C 274.95 198.12 274.51 197.90 271.00 198.00 Z"/>
</g>
<g fill="#000000" fill-opacity="0.00" stroke="None">
<path d="
M 0.00 250.00 
L 1000.00 250.00
L 1000.00 0.00
L 0.00 0.00
L 0.00 250.00
M 200.00 65.00 
C 200.15 64.39 201.27 62.42 202.00 62.00
C 202.42 64.62 200.70 68.83 204.00 70.00
C 204.00 69.00 204.00 68.00 204.00 67.00
C 204.00 63.97 203.44 60.63 205.00 58.00
C 211.28 64.20 217.75 70.91 223.00 78.00
C 224.87 80.03 227.21 81.90 229.00 84.00
C 230.35 85.58 231.69 87.47 233.00 89.00
C 235.33 91.33 237.88 93.51 240.00 96.00
C 242.44 98.85 247.40 104.86 249.75 107.25 C 252.11 109.63 261.27 116.91 258.00 119.00
C 256.30 120.08 249.09 119.20 247.00 119.00
C 235.94 119.66 239.35 139.42 240.00 149.00
C 241.70 174.03 264.94 190.85 287.00 198.00
C 284.85 201.29 281.08 199.21 278.00 199.00
C 275.72 198.77 272.65 198.20 271.00 198.00
C 242.77 194.59 218.72 179.67 208.00 153.00
C 201.84 137.67 204.00 118.28 204.00 101.00
C 201.10 102.32 201.93 106.29 202.00 109.00
C 202.03 110.00 202.00 111.00 202.00 112.00
C 202.01 114.52 200.02 117.54 200.00 119.00
C 200.56 124.30 200.66 130.48 200.00 138.00
C 196.48 178.01 153.43 203.31 116.00 198.00
C 151.49 191.03 174.83 153.00 163.00 118.00
C 157.33 118.00 151.67 118.00 146.00 118.00
C 161.04 97.82 180.03 79.48 197.00 61.00
C 198.27 59.48 198.73 56.91 201.00 57.00
C 201.03 59.74 199.37 62.08 200.00 65.00
M 651.00 75.00 
C 665.96 79.54 657.11 103.88 641.98 98.02 C 626.84 92.17 634.82 70.09 651.00 75.00
M 570.00 109.00 
C 570.00 111.20 570.40 113.84 570.00 116.00
C 579.50 116.00 590.51 118.01 601.00 117.00
C 602.43 106.89 598.21 96.23 601.00 87.00
C 602.19 85.81 604.96 86.90 607.00 87.00
C 609.71 86.86 613.26 86.67 616.00 87.00
C 618.33 87.05 620.67 86.96 623.00 87.00
C 622.31 95.67 624.91 106.55 624.00 115.00 C 623.09 123.45 623.64 135.36 623.00 143.00 C 622.36 150.64 628.37 165.73 620.97 168.97 C 613.57 172.20 598.95 170.15 600.93 161.93 C 602.91 153.70 597.83 146.20 600.00 137.00
C 596.62 138.65 589.16 134.37 585.26 136.60 C 581.35 138.82 573.71 134.65 569.00 136.00
C 567.09 139.21 570.65 145.20 569.40 149.74 C 568.16 154.28 571.51 163.98 569.00 169.00
C 558.24 169.54 545.61 171.75 547.00 159.00 C 548.39 146.25 546.66 138.16 547.00 126.00 C 547.34 113.84 547.59 106.43 547.00 94.00 C 546.41 81.57 559.63 88.37 569.00 87.00
C 568.79 94.68 570.65 101.01 570.00 109.00
M 449.00 169.00 
C 442.26 171.81 432.14 166.10 426.00 171.00
C 426.00 166.33 426.00 161.67 426.00 157.00
C 427.91 158.90 430.33 159.31 433.00 159.00
C 434.24 156.41 436.09 153.58 436.00 150.00
C 445.23 147.35 449.66 136.19 443.25 128.75 C 436.83 121.32 432.90 113.07 428.00 105.00
C 435.92 104.76 444.78 105.34 452.00 105.00
C 451.86 107.25 454.16 108.71 454.00 111.00
C 455.63 113.56 459.30 114.53 460.00 118.00
C 461.94 117.09 463.68 115.67 466.00 116.00
C 468.09 110.67 470.00 105.99 475.00 103.00
C 482.25 107.01 493.32 104.30 502.00 106.00
C 500.55 100.73 504.41 96.05 503.00 90.00
C 511.99 89.81 528.48 84.50 524.00 100.00
C 528.01 98.86 526.85 103.64 527.00 106.00
C 530.67 106.00 534.33 106.00 538.00 106.00
C 538.57 114.50 539.71 125.66 528.00 121.00
C 521.76 128.47 522.53 144.49 527.00 153.00
C 530.70 153.67 533.60 151.56 537.00 151.00
C 540.69 159.10 542.78 167.20 532.98 168.98 C 523.17 170.75 517.83 170.98 509.75 165.25 C 501.67 159.51 502.63 152.66 503.00 144.00 C 503.37 135.34 506.46 119.23 494.00 122.00
C 493.35 117.17 495.31 111.01 493.00 107.00
C 489.43 118.17 475.08 126.51 477.93 138.07 C 480.77 149.63 491.45 157.33 496.00 169.00
C 489.46 167.35 476.80 171.98 471.75 167.25 C 466.71 162.51 466.45 155.21 461.00 151.00
C 456.63 156.54 452.78 163.37 449.00 169.00
M 311.00 105.00 
C 310.00 108.97 312.16 107.82 314.00 109.00
C 324.70 101.71 345.77 100.66 352.77 116.23 C 359.77 131.80 354.49 152.36 355.00 169.00
C 347.97 168.93 339.47 170.73 333.00 167.00
C 337.43 160.28 333.35 152.14 335.00 144.00 C 336.65 135.86 334.96 126.23 327.26 123.74 C 319.55 121.26 312.57 124.36 313.00 134.00 C 313.43 143.65 312.11 151.65 313.00 162.00 C 313.89 172.35 299.87 168.54 292.00 169.00
C 291.07 157.44 291.92 149.41 292.00 138.00 C 292.08 126.59 290.14 117.15 291.00 106.00
C 297.64 103.51 303.94 105.25 311.00 105.00
M 419.00 112.00 
C 424.81 114.75 424.28 113.46 426.00 120.00
C 427.34 125.08 432.09 136.03 428.00 142.00
C 427.38 142.91 427.15 142.86 426.00 143.00
C 422.77 145.65 418.13 143.80 413.00 145.00
C 413.73 146.74 421.39 149.15 417.00 150.00
C 418.10 151.06 418.93 153.02 420.00 154.00
C 421.61 155.19 423.18 156.23 425.00 157.00
C 407.13 179.10 365.38 172.11 360.78 142.78 C 356.19 113.44 395.30 90.21 419.00 112.00
M 689.00 155.00 
C 689.00 158.63 689.04 162.05 688.00 165.00
C 687.58 166.19 688.32 167.78 688.00 169.00
C 681.47 167.26 667.31 173.41 667.00 164.00 C 666.70 154.59 667.49 147.49 667.00 138.00 C 666.51 128.51 668.01 122.13 667.00 112.00 C 665.99 101.87 679.33 105.33 687.00 105.00
C 687.00 107.00 687.00 109.00 687.00 111.00
C 687.37 110.60 690.24 109.48 691.00 109.00
C 694.70 106.66 707.36 101.24 708.96 106.04 C 710.57 110.83 711.21 123.94 705.99 123.99 C 700.77 124.04 692.35 124.02 690.08 131.08 C 687.81 138.14 689.00 147.40 689.00 155.00
M 779.00 143.00 
C 763.56 142.42 749.26 145.66 734.00 143.00
C 735.22 151.02 749.04 157.91 756.08 151.08 C 763.12 144.24 772.54 150.90 774.00 160.00
C 758.28 173.93 729.23 174.80 716.70 155.30 C 704.17 135.81 715.04 109.74 738.01 105.01 C 760.98 100.28 785.38 117.82 779.00 143.00
M 657.00 169.00 
C 647.87 169.01 634.21 172.05 635.00 161.00 C 635.79 149.95 634.55 143.26 635.00 133.00 C 635.45 122.74 634.51 115.57 635.00 105.00
C 642.26 106.36 657.35 100.73 657.00 111.00 C 656.65 121.27 657.18 130.02 657.00 140.00 C 656.82 149.98 657.14 159.10 657.00 169.00 Z"/>
</g>
<g fill="#26557E" fill-opacity="0.37" stroke="None">
<path d="
M 197.00 61.00 
C 200.28 60.19 198.95 71.86 199.00 77.00 C 199.05 82.14 199.20 92.05 199.00 98.00 C 198.80 103.95 199.62 111.74 199.00 118.00 C 198.38 124.26 199.95 132.49 200.00 138.00
C 200.66 130.48 200.56 124.30 200.00 119.00
C 199.74 116.49 201.23 112.73 201.00 111.00
C 199.91 109.34 200.12 107.93 200.00 106.00
C 199.87 104.02 200.00 101.99 200.00 100.00
C 200.00 91.33 200.00 82.67 200.00 74.00
C 200.00 71.02 199.84 67.98 200.00 65.00
C 199.37 62.08 201.03 59.74 201.00 57.00
C 198.73 56.91 198.27 59.48 197.00 61.00 Z"/>
</g>
<g fill="#2491C5" fill-opacity="0.91" stroke="None">
<path d="
M 204.00 67.00 
C 204.21 69.15 205.23 72.14 205.00 75.00
C 204.76 77.94 204.07 81.34 204.00 85.00
C 204.22 86.05 207.72 87.77 206.00 90.00
C 212.71 87.50 220.48 83.43 227.00 84.00
C 225.77 82.47 224.39 79.76 223.00 78.00
C 217.75 70.91 211.28 64.20 205.00 58.00
C 203.44 60.63 204.00 63.97 204.00 67.00 Z"/>
</g>
<g fill="#104176" fill-opacity="0.95" stroke="None">
<path d="
M 197.00 61.00 
C 180.03 79.48 161.04 97.82 146.00 118.00
C 151.67 118.00 157.33 118.00 163.00 118.00
C 174.83 153.00 151.49 191.03 116.00 198.00
C 153.43 203.31 196.48 178.01 200.00 138.00
C 199.95 132.49 198.38 124.26 199.00 118.00 C 199.62 111.74 198.80 103.95 199.00 98.00 C 199.20 92.05 199.05 82.14 199.00 77.00 C 198.95 71.86 200.28 60.19 197.00 61.00 Z"/>
</g>
<g fill="#316092" fill-opacity="0.02" stroke="None">
<path d="
M 200.00 65.00 
C 199.84 67.98 200.00 71.02 200.00 74.00
C 200.66 73.76 203.68 72.52 204.00 72.00
C 204.00 71.50 204.00 70.50 204.00 70.00
C 200.70 68.83 202.42 64.62 202.00 62.00
C 201.27 62.42 200.15 64.39 200.00 65.00 Z"/>
</g>
<g fill="#3185B4" fill-opacity="0.09" stroke="None">
<path d="
M 204.00 70.00 
C 204.00 70.50 204.00 71.50 204.00 72.00
C 204.01 73.45 204.85 74.19 205.00 75.00
C 205.23 72.14 204.21 69.15 204.00 67.00
C 204.00 68.00 204.00 69.00 204.00 70.00 Z"/>
</g>
<g fill="#000000" fill-opacity="0.00" stroke="None">
<path d="
M 200.00 74.00 
C 200.00 82.67 200.00 91.33 200.00 100.00
C 201.06 100.45 203.02 99.41 204.00 100.00
C 203.42 95.20 203.90 89.84 204.00 85.00
C 204.07 81.34 204.76 77.94 205.00 75.00
C 204.85 74.19 204.01 73.45 204.00 72.00
C 203.68 72.52 200.66 73.76 200.00 74.00 Z"/>
</g>
<g fill="#2BBBD8" fill-opacity="0.88" stroke="None">
<path d="
M 651.00 75.00 
C 634.82 70.09 626.84 92.17 641.98 98.02 C 657.11 103.88 665.96 79.54 651.00 75.00 Z"/>
</g>
<g fill="#5191AC" fill-opacity="0.18" stroke="None">
<path d="
M 227.00 84.00 
C 227.48 83.90 228.69 83.76 229.00 84.00
C 227.21 81.90 224.87 80.03 223.00 78.00
C 224.39 79.76 225.77 82.47 227.00 84.00 Z"/>
</g>
<g fill="#1EA7D3" fill-opacity="0.96" stroke="None">
<path d="
M 204.00 85.00 
C 203.90 89.84 203.42 95.20 204.00 100.00
C 205.37 102.20 204.98 105.38 206.00 108.00
C 214.38 102.09 228.15 104.67 232.00 95.00
C 233.86 96.48 236.79 95.76 238.00 95.00
C 236.20 93.32 234.56 90.83 233.00 89.00
C 231.69 87.47 230.35 85.58 229.00 84.00
C 228.69 83.76 227.48 83.90 227.00 84.00
C 220.48 83.43 212.71 87.50 206.00 90.00
C 207.72 87.77 204.22 86.05 204.00 85.00 Z"/>
</g>
<g fill="#1F86BE" fill-opacity="0.93" stroke="None">
<path d="
M 569.00 136.00 
C 569.71 134.81 570.69 135.11 572.00 135.00
C 566.00 132.84 570.69 124.67 570.00 120.00
C 571.81 120.14 574.08 119.56 575.00 118.00
C 573.60 117.96 569.44 118.82 569.00 117.00
C 568.13 114.28 569.81 110.94 570.00 109.00
C 570.65 101.01 568.79 94.68 569.00 87.00
C 559.63 88.37 546.41 81.57 547.00 94.00 C 547.59 106.43 547.34 113.84 547.00 126.00 C 546.66 138.16 548.39 146.25 547.00 159.00 C 545.61 171.75 558.24 169.54 569.00 169.00
C 571.51 163.98 568.16 154.28 569.40 149.74 C 570.65 145.20 567.09 139.21 569.00 136.00 Z"/>
</g>
<g fill="#23B1D7" fill-opacity="0.93" stroke="None">
<path d="
M 601.00 87.00 
C 602.12 90.33 602.90 98.18 602.00 102.00 C 601.10 105.82 604.39 115.60 601.00 118.00
C 601.92 118.02 602.83 116.36 604.00 117.00
C 600.62 121.52 605.19 123.64 608.00 126.00
C 605.63 127.45 602.68 125.18 600.00 125.00
C 600.28 127.88 600.47 130.17 604.00 131.00
C 604.69 134.08 600.91 133.31 600.00 135.00
C 600.63 133.93 599.97 137.28 600.00 137.00
C 597.83 146.20 602.91 153.70 600.93 161.93 C 598.95 170.15 613.57 172.20 620.97 168.97 C 628.37 165.73 622.36 150.64 623.00 143.00 C 623.64 135.36 623.09 123.45 624.00 115.00 C 624.91 106.55 622.31 95.67 623.00 87.00
C 620.67 86.96 618.33 87.05 616.00 87.00
C 613.01 86.94 609.99 87.14 607.00 87.00
C 604.96 86.90 602.19 85.81 601.00 87.00 Z"/>
</g>
<g fill="#00FFFF" fill-opacity="0.00" stroke="None">
<path d="
M 607.00 87.00 
C 609.99 87.14 613.01 86.94 616.00 87.00
C 613.26 86.67 609.71 86.86 607.00 87.00 Z"/>
</g>
<g fill="#3EA5C3" fill-opacity="0.43" stroke="None">
<path d="
M 570.00 116.00 
C 569.93 116.35 568.98 116.92 569.00 117.00
C 569.44 118.82 573.60 117.96 575.00 118.00
C 583.66 118.24 592.34 117.81 601.00 118.00
C 604.39 115.60 601.10 105.82 602.00 102.00 C 602.90 98.18 602.12 90.33 601.00 87.00
C 598.21 96.23 602.43 106.89 601.00 117.00
C 590.51 118.01 579.50 116.00 570.00 116.00 Z"/>
</g>
<g fill="#449FBA" fill-opacity="0.11" stroke="None">
<path d="
M 238.00 95.00 
C 238.49 95.46 239.57 95.60 240.00 96.00
C 237.88 93.51 235.33 91.33 233.00 89.00
C 234.56 90.83 236.20 93.32 238.00 95.00 Z"/>
</g>
<g fill="#393939" fill-opacity="0.91" stroke="None">
<path d="
M 466.00 116.00 
C 465.03 118.47 463.65 120.78 462.00 123.00
C 457.63 120.20 456.92 114.83 454.00 111.00
C 454.16 108.71 451.86 107.25 452.00 105.00
C 444.78 105.34 435.92 104.76 428.00 105.00
C 432.90 113.07 436.83 121.32 443.25 128.75 C 449.66 136.19 445.23 147.35 436.00 150.00
C 436.09 153.58 434.24 156.41 433.00 159.00
C 431.34 162.47 428.81 164.69 428.00 168.00
C 434.83 168.66 442.99 166.68 449.00 169.00
C 452.78 163.37 456.63 156.54 461.00 151.00
C 466.45 155.21 466.71 162.51 471.75 167.25 C 476.80 171.98 489.46 167.35 496.00 169.00
C 491.45 157.33 480.77 149.63 477.93 138.07 C 475.08 126.51 489.43 118.17 493.00 107.00
C 495.31 111.01 493.35 117.17 494.00 122.00
C 506.46 119.23 503.37 135.34 503.00 144.00 C 502.63 152.66 501.67 159.51 509.75 165.25 C 517.83 170.98 523.17 170.75 532.98 168.98 C 542.78 167.20 540.69 159.10 537.00 151.00
C 533.60 151.56 530.70 153.67 527.00 153.00
C 522.53 144.49 521.76 128.47 528.00 121.00
C 539.71 125.66 538.57 114.50 538.00 106.00
C 534.33 106.00 530.67 106.00 527.00 106.00
C 526.85 103.64 528.01 98.86 524.00 100.00
C 528.48 84.50 511.99 89.81 503.00 90.00
C 504.41 96.05 500.55 100.73 502.00 106.00
C 493.32 104.30 482.25 107.01 475.00 103.00
C 470.00 105.99 468.09 110.67 466.00 116.00
M 524.00 100.00 
C 526.01 107.71 521.10 105.61 524.00 100.00 Z"/>
</g>
<g fill="#1FBCDE" fill-opacity="0.96" stroke="None">
<path d="
M 204.00 100.00 
C 204.22 100.13 204.00 101.00 204.00 101.00
C 204.00 118.28 201.84 137.67 208.00 153.00
C 208.53 149.43 214.08 151.06 211.00 145.00
C 214.12 144.82 217.61 148.98 216.00 152.00
C 221.41 153.74 221.80 148.58 223.00 145.00
C 226.67 154.08 231.67 137.49 239.00 142.00
C 238.93 138.60 238.37 133.22 239.00 130.00 C 239.63 126.78 237.24 120.52 239.00 118.00
C 241.22 114.83 255.83 116.70 258.00 119.00
C 261.27 116.91 252.11 109.63 249.75 107.25 C 247.40 104.86 242.44 98.85 240.00 96.00
C 239.57 95.60 238.49 95.46 238.00 95.00
C 236.79 95.76 233.86 96.48 232.00 95.00
C 228.15 104.67 214.38 102.09 206.00 108.00
C 204.98 105.38 205.37 102.20 204.00 100.00 Z"/>
</g>
<g fill="#337488" fill-opacity="0.03" stroke="None">
<path d="
M 200.00 106.00 
C 200.13 106.57 201.90 108.49 202.00 109.00
C 201.93 106.29 201.10 102.32 204.00 101.00
C 204.00 101.00 204.22 100.13 204.00 100.00
C 203.02 99.41 201.06 100.45 200.00 100.00
C 200.00 101.99 199.87 104.02 200.00 106.00 Z"/>
</g>
<g fill="#383839" fill-opacity="0.16" stroke="None">
<path d="
M 524.00 100.00 
C 521.10 105.61 526.01 107.71 524.00 100.00 Z"/>
</g>
<g fill="#383838" fill-opacity="0.92" stroke="None">
<path d="
M 311.00 105.00 
C 303.94 105.25 297.64 103.51 291.00 106.00
C 290.14 117.15 292.08 126.59 292.00 138.00 C 291.92 149.41 291.07 157.44 292.00 169.00
C 299.87 168.54 313.89 172.35 313.00 162.00 C 312.11 151.65 313.43 143.65 313.00 134.00 C 312.57 124.36 319.55 121.26 327.26 123.74 C 334.96 126.23 336.65 135.86 335.00 144.00 C 333.35 152.14 337.43 160.28 333.00 167.00
C 339.47 170.73 347.97 168.93 355.00 169.00
C 354.49 152.36 359.77 131.80 352.77 116.23 C 345.77 100.66 324.70 101.71 314.00 109.00
C 312.16 107.82 310.00 108.97 311.00 105.00 Z"/>
</g>
<g fill="#393939" fill-opacity="0.93" stroke="None">
<path d="
M 420.00 154.00 
C 417.78 152.35 415.38 150.39 414.00 148.00
C 412.29 146.94 410.93 151.17 410.00 149.00
C 407.94 150.23 406.54 148.44 409.00 151.00
C 406.09 150.76 403.82 152.76 401.00 153.00
C 395.61 154.40 390.92 154.04 387.00 150.00
C 385.08 148.03 384.35 145.30 383.00 143.00
C 386.57 141.54 392.74 141.56 397.00 142.00 C 401.26 142.44 408.12 140.82 412.00 142.00 C 415.88 143.18 425.24 139.49 428.00 142.00
C 432.09 136.03 427.34 125.08 426.00 120.00
C 424.52 117.77 420.91 113.91 419.00 112.00
C 395.30 90.21 356.19 113.44 360.78 142.78 C 365.38 172.11 407.13 179.10 425.00 157.00
C 423.18 156.23 421.61 155.19 420.00 154.00
M 406.00 125.00 
C 407.02 126.62 407.55 128.89 408.00 131.00
C 405.67 131.00 403.33 131.00 401.00 131.00
C 395.34 131.11 389.66 130.92 384.00 131.00
C 383.68 126.76 389.53 120.17 394.07 120.07 C 398.62 119.98 402.64 121.99 406.00 125.00 Z"/>
</g>
<g fill="#2ACDE2" fill-opacity="0.91" stroke="None">
<path d="
M 691.00 109.00 
C 689.77 110.30 689.23 114.73 686.00 114.00
C 686.11 113.00 685.53 111.27 687.00 111.00
C 687.00 109.00 687.00 107.00 687.00 105.00
C 679.33 105.33 665.99 101.87 667.00 112.00 C 668.01 122.13 666.51 128.51 667.00 138.00 C 667.49 147.49 666.70 154.59 667.00 164.00 C 667.31 173.41 681.47 167.26 688.00 169.00
C 688.32 167.78 687.58 166.19 688.00 165.00
C 688.58 162.20 688.78 157.27 689.00 155.00
C 689.00 147.40 687.81 138.14 690.08 131.08 C 692.35 124.02 700.77 124.04 705.99 123.99 C 711.21 123.94 710.57 110.83 708.96 106.04 C 707.36 101.24 694.70 106.66 691.00 109.00 Z"/>
</g>
<g fill="#2CE2EC" fill-opacity="0.91" stroke="None">
<path d="
M 779.00 143.00 
C 785.38 117.82 760.98 100.28 738.01 105.01 C 715.04 109.74 704.17 135.81 716.70 155.30 C 729.23 174.80 758.28 173.93 774.00 160.00
C 772.54 150.90 763.12 144.24 756.08 151.08 C 749.04 157.91 735.22 151.02 734.00 143.00
C 749.26 145.66 763.56 142.42 779.00 143.00
M 758.00 130.00 
C 750.25 129.96 742.41 130.42 735.00 129.00
C 735.96 116.93 756.54 118.64 758.00 130.00 Z"/>
</g>
<g fill="#29BCDB" fill-opacity="0.91" stroke="None">
<path d="
M 657.00 169.00 
C 657.14 159.10 656.82 149.98 657.00 140.00 C 657.18 130.02 656.65 121.27 657.00 111.00 C 657.35 100.73 642.26 106.36 635.00 105.00
C 634.51 115.57 635.45 122.74 635.00 133.00 C 634.55 143.26 635.79 149.95 635.00 161.00 C 634.21 172.05 647.87 169.01 657.00 169.00 Z"/>
</g>
<g fill="#3C5AA5" fill-opacity="0.02" stroke="None">
<path d="
M 201.00 111.00 
C 201.20 111.31 201.94 111.76 202.00 112.00
C 202.00 111.00 202.03 110.00 202.00 109.00
C 201.90 108.49 200.13 106.57 200.00 106.00
C 200.12 107.93 199.91 109.34 201.00 111.00 Z"/>
</g>
<g fill="#338CAB" fill-opacity="0.04" stroke="None">
<path d="
M 569.00 117.00 
C 568.98 116.92 569.93 116.35 570.00 116.00
C 570.40 113.84 570.00 111.20 570.00 109.00
C 569.81 110.94 568.13 114.28 569.00 117.00 Z"/>
</g>
<g fill="#39D9EA" fill-opacity="0.45" stroke="None">
<path d="
M 687.00 111.00 
C 685.53 111.27 686.11 113.00 686.00 114.00
C 689.23 114.73 689.77 110.30 691.00 109.00
C 690.24 109.48 687.37 110.60 687.00 111.00 Z"/>
</g>
<g fill="#0000FF" fill-opacity="0.00" stroke="None">
<path d="
M 200.00 119.00 
C 200.02 117.54 202.01 114.52 202.00 112.00
C 201.94 111.76 201.20 111.31 201.00 111.00
C 201.23 112.73 199.74 116.49 200.00 119.00 Z"/>
</g>
<g fill="#3A3A3B" fill-opacity="0.15" stroke="None">
<path d="
M 466.00 116.00 
C 463.68 115.67 461.94 117.09 460.00 118.00
C 459.30 114.53 455.63 113.56 454.00 111.00
C 456.92 114.83 457.63 120.20 462.00 123.00
C 463.65 120.78 465.03 118.47 466.00 116.00 Z"/>
</g>
<g fill="#373737" fill-opacity="0.13" stroke="None">
<path d="
M 426.00 120.00 
C 424.28 113.46 424.81 114.75 419.00 112.00
C 420.91 113.91 424.52 117.77 426.00 120.00 Z"/>
</g>
<g fill="#4EB6CF" fill-opacity="0.54" stroke="None">
<path d="
M 239.00 118.00 
C 241.66 117.05 245.11 118.82 247.00 119.00
C 249.09 119.20 256.30 120.08 258.00 119.00
C 255.83 116.70 241.22 114.83 239.00 118.00 Z"/>
</g>
<g fill="#1A9FCF" fill-opacity="1.00" stroke="None">
<path d="
M 601.00 118.00 
C 592.34 117.81 583.66 118.24 575.00 118.00
C 574.08 119.56 571.81 120.14 570.00 120.00
C 570.69 124.67 566.00 132.84 572.00 135.00
C 576.12 134.65 581.97 134.47 586.00 135.00 C 590.03 135.53 596.49 133.25 600.00 135.00
C 600.91 133.31 604.69 134.08 604.00 131.00
C 600.47 130.17 600.28 127.88 600.00 125.00
C 602.68 125.18 605.63 127.45 608.00 126.00
C 605.19 123.64 600.62 121.52 604.00 117.00
C 602.83 116.36 601.92 118.02 601.00 118.00 Z"/>
</g>
<g fill="#40BED2" fill-opacity="0.11" stroke="None">
<path d="
M 239.00 142.00 
C 239.05 144.59 239.65 147.07 240.00 149.00
C 239.35 139.42 235.94 119.66 247.00 119.00
C 245.11 118.82 241.66 117.05 239.00 118.00
C 237.24 120.52 239.63 126.78 239.00 130.00 C 238.37 133.22 238.93 138.60 239.00 142.00 Z"/>
</g>
<g fill="#000000" fill-opacity="0.00" stroke="None">
<path d="
M 401.00 131.00 
C 401.00 129.33 401.00 127.67 401.00 126.00
C 402.76 126.05 404.07 124.47 406.00 125.00
C 402.64 121.99 398.62 119.98 394.07 120.07 C 389.53 120.17 383.68 126.76 384.00 131.00
C 389.66 130.92 395.34 131.11 401.00 131.00 Z"/>
</g>
<g fill="#000000" fill-opacity="0.00" stroke="None">
<path d="
M 758.00 130.00 
C 756.54 118.64 735.96 116.93 735.00 129.00
C 742.41 130.42 750.25 129.96 758.00 130.00 Z"/>
</g>
<g fill="#343434" fill-opacity="0.08" stroke="None">
<path d="
M 401.00 131.00 
C 403.33 131.00 405.67 131.00 408.00 131.00
C 407.55 128.89 407.02 126.62 406.00 125.00
C 404.07 124.47 402.76 126.05 401.00 126.00
C 401.00 127.67 401.00 129.33 401.00 131.00 Z"/>
</g>
<g fill="#3D9EC5" fill-opacity="0.42" stroke="None">
<path d="
M 569.00 136.00 
C 573.71 134.65 581.35 138.82 585.26 136.60 C 589.16 134.37 596.62 138.65 600.00 137.00
C 599.97 137.28 600.63 133.93 600.00 135.00
C 596.49 133.25 590.03 135.53 586.00 135.00 C 581.97 134.47 576.12 134.65 572.00 135.00
C 570.69 135.11 569.71 134.81 569.00 136.00 Z"/>
</g>
<g fill="#2AD9EB" fill-opacity="0.92" stroke="None">
<path d="
M 208.00 153.00 
C 218.72 179.67 242.77 194.59 271.00 198.00
C 274.51 197.90 274.95 198.12 278.00 199.00
C 281.08 199.21 284.85 201.29 287.00 198.00
C 264.94 190.85 241.70 174.03 240.00 149.00
C 239.65 147.07 239.05 144.59 239.00 142.00
C 231.67 137.49 226.67 154.08 223.00 145.00
C 221.80 148.58 221.41 153.74 216.00 152.00
C 217.61 148.98 214.12 144.82 211.00 145.00
C 214.08 151.06 208.53 149.43 208.00 153.00 Z"/>
</g>
<g fill="#383838" fill-opacity="0.42" stroke="None">
<path d="
M 383.00 143.00 
C 389.00 143.00 395.00 143.00 401.00 143.00
C 409.12 143.00 417.95 143.99 426.00 143.00
C 427.15 142.86 427.38 142.91 428.00 142.00
C 425.24 139.49 415.88 143.18 412.00 142.00 C 408.12 140.82 401.26 142.44 397.00 142.00 C 392.74 141.56 386.57 141.54 383.00 143.00 Z"/>
</g>
<g fill="#000000" fill-opacity="0.00" stroke="None">
<path d="
M 387.00 150.00 
C 388.41 150.67 392.46 150.94 394.22 150.78 C 395.99 150.62 400.28 152.95 401.00 153.00
C 403.82 152.76 406.09 150.76 409.00 151.00
C 406.54 148.44 407.94 150.23 410.00 149.00
C 410.30 148.82 411.77 147.05 412.00 147.00
C 409.51 144.96 405.59 143.44 401.00 143.00
C 395.00 143.00 389.00 143.00 383.00 143.00
C 384.35 145.30 385.08 148.03 387.00 150.00 Z"/>
</g>
<g fill="#3E3C3B" fill-opacity="0.03" stroke="None">
<path d="
M 412.00 147.00 
C 413.20 147.98 415.66 148.70 417.00 150.00
C 421.39 149.15 413.73 146.74 413.00 145.00
C 418.13 143.80 422.77 145.65 426.00 143.00
C 417.95 143.99 409.12 143.00 401.00 143.00
C 405.59 143.44 409.51 144.96 412.00 147.00 Z"/>
</g>
<g fill="#3D3B3C" fill-opacity="0.29" stroke="None">
<path d="
M 410.00 149.00 
C 410.93 151.17 412.29 146.94 414.00 148.00
C 415.38 150.39 417.78 152.35 420.00 154.00
C 418.93 153.02 418.10 151.06 417.00 150.00
C 415.66 148.70 413.20 147.98 412.00 147.00
C 411.77 147.05 410.30 148.82 410.00 149.00 Z"/>
</g>
<g fill="#383637" fill-opacity="0.18" stroke="None">
<path d="
M 401.00 153.00 
C 400.28 152.95 395.99 150.62 394.22 150.78 C 392.46 150.94 388.41 150.67 387.00 150.00
C 390.92 154.04 395.61 154.40 401.00 153.00 Z"/>
</g>
<g fill="#49C2C2" fill-opacity="0.02" stroke="None">
<path d="
M 688.00 165.00 
C 689.04 162.05 689.00 158.63 689.00 155.00
C 688.78 157.27 688.58 162.20 688.00 165.00 Z"/>
</g>
<g fill="#3A3939" fill-opacity="0.15" stroke="None">
<path d="
M 449.00 169.00 
C 442.99 166.68 434.83 168.66 428.00 168.00
C 428.81 164.69 431.34 162.47 433.00 159.00
C 430.33 159.31 427.91 158.90 426.00 157.00
C 426.00 161.67 426.00 166.33 426.00 171.00
C 432.14 166.10 442.26 171.81 449.00 169.00 Z"/>
</g>
<g fill="#67EAEC" fill-opacity="0.27" stroke="None">
<path d="
M 271.00 198.00 
C 272.65 198.20 275.72 198.77 278.00 199.00
C 274.95 198.12 274.51 197.90 271.00 198.00 Z"/>
</g>
</svg>